<svg width="420" height="280" viewBox="0 0 420 280" fill="none" xmlns="http://www.w3.org/2000/svg">
<rect width="420" height="280" rx="28" fill="url(#g)"/>
<path d="M184 58h52v36c22 11 35 34 35 59v76c0 19-15 34-34 34h-54c-19 0-34-15-34-34v-76c0-25 13-48 35-59V58Z" fill="#242b30" stroke="#7b858e" stroke-width="4"/>
<path d="M182 58h56V35h-56v23Z" fill="#343d44" stroke="#808993" stroke-width="4"/>
<path d="M239 100c29 5 49 28 49 57v29" stroke="#6f7983" stroke-width="10" stroke-linecap="round" opacity=".55"/>
<path d="M169 126h82" stroke="#424b53" stroke-width="6" opacity=".8"/>
<path d="M168 219h84" stroke="#424b53" stroke-width="6" opacity=".8"/>
<defs><linearGradient id="g" x1="0" y1="0" x2="420" y2="280"><stop stop-color="#22282f"/><stop offset="1" stop-color="#101419"/></linearGradient></defs>
</svg>
