<svg width="420" height="280" viewBox="0 0 420 280" fill="none" xmlns="http://www.w3.org/2000/svg">
<rect width="420" height="280" rx="28" fill="url(#g)"/>
<path d="M111 176v-27c0-62 44-108 99-108s99 46 99 108v27" stroke="#69737e" stroke-width="18" stroke-linecap="round"/>
<path d="M119 162h32c20 0 37 17 37 37v22c0 20-17 37-37 37h-19c-20 0-37-17-37-37v-35c0-13 11-24 24-24Z" fill="#181d22" stroke="#5b6670" stroke-width="5"/>
<path d="M301 162h-32c-20 0-37 17-37 37v22c0 20 17 37 37 37h19c20 0 37-17 37-37v-35c0-13-11-24-24-24Z" fill="#181d22" stroke="#5b6670" stroke-width="5"/>
<path d="M133 176v67M287 176v67" stroke="#2d353d" stroke-width="8" stroke-linecap="round"/>
<defs><linearGradient id="g" x1="0" y1="0" x2="420" y2="280"><stop stop-color="#22282f"/><stop offset="1" stop-color="#101419"/></linearGradient></defs>
</svg>
